<svg width="174" height="170" viewBox="0 0 174 170" fill="none" xmlns="http://www.w3.org/2000/svg">
<path d="M76.3156 3.80431C82.1963 1.36845 88.8037 1.36845 94.6844 3.8043L136.42 21.0916C142.3 23.5275 146.973 28.1997 149.408 34.0803L166.696 75.8156C169.132 81.6963 169.132 88.3037 166.696 94.1844L149.408 135.92C146.973 141.8 142.3 146.473 136.42 148.908L94.6844 166.196C88.8037 168.632 82.1963 168.632 76.3156 166.196L34.5803 148.908C28.6997 146.473 24.0275 141.8 21.5916 135.92L4.30431 94.1844C1.86845 88.3037 1.86845 81.6963 4.3043 75.8156L21.5916 34.0803C24.0275 28.1997 28.6997 23.5275 34.5803 21.0916L76.3156 3.80431Z" fill="#FCFAFF"/>
<path d="M79.3771 22.5362C83.2975 20.9123 87.7025 20.9123 91.6229 22.5362L125.339 36.5019C129.259 38.1258 132.374 41.2405 133.998 45.161L147.964 78.8771C149.588 82.7975 149.588 87.2025 147.964 91.1229L133.998 124.839C132.374 128.759 129.259 131.874 125.339 133.498L91.6229 147.464C87.7025 149.088 83.2975 149.088 79.3771 147.464L45.661 133.498C41.7405 131.874 38.6258 128.759 37.0019 124.839L23.0362 91.1229C21.4123 87.2025 21.4123 82.7975 23.0362 78.8771L37.0019 45.161C38.6258 41.2405 41.7405 38.1258 45.661 36.5019L79.3771 22.5362Z" fill="#F8F6FF"/>
<path d="M80.1424 52.2192C83.5728 50.7983 87.4272 50.7983 90.8576 52.2192L104.891 58.0321C108.322 59.453 111.047 62.1784 112.468 65.6088L118.281 79.6424C119.702 83.0728 119.702 86.9272 118.281 90.3576L112.468 104.391C111.047 107.822 108.322 110.547 104.891 111.968L90.8576 117.781C87.4272 119.202 83.5728 119.202 80.1424 117.781L66.1088 111.968C62.6784 110.547 59.953 107.822 58.5321 104.391L52.7192 90.3576C51.2983 86.9272 51.2983 83.0728 52.7192 79.6424L58.5321 65.6088C59.953 62.1784 62.6784 59.453 66.1088 58.0321L80.1424 52.2192Z" fill="#ECE7FF"/>
<g clip-path="url(#clip0_13051_31573)">
<path d="M98.2644 86.5259C98.2644 94.2449 92.0061 100.502 84.2871 100.502C82.3936 100.502 80.5884 100.126 78.9421 99.4434C74.4419 97.5794 71.1272 93.4324 70.4419 88.4468C70.355 87.8191 70.3105 87.1775 70.3105 86.5259C70.3105 78.8062 76.5681 72.5486 84.2871 72.5486C92.0061 72.5486 98.2644 78.8062 98.2644 86.5259Z" fill="#937DE2"/>
<path d="M84.2856 72.5486C83.5466 72.5486 82.8213 72.6064 82.1133 72.7168C88.8008 73.7605 93.9185 79.5452 93.9185 86.5259C93.9185 93.5056 88.8013 99.2901 82.1145 100.334C82.822 100.444 83.5469 100.502 84.2856 100.502C92.0046 100.502 98.263 94.2449 98.263 86.5259C98.263 78.8062 92.0046 72.5486 84.2856 72.5486Z" fill="#7570D6"/>
<path d="M100.009 85.4924L92.0271 90.7776C91.4585 91.1543 90.7698 91.3037 90.0964 91.1961C89.4216 91.0886 88.7312 91.2361 88.1611 91.6135L87.093 92.3213L81.1113 83.5042L82.5789 77.1641C82.6931 76.6707 82.7495 76.1704 82.7495 75.6721C82.7495 74.3831 82.3726 73.1106 81.6494 72.0183C81.4717 71.7498 81.3867 71.4458 81.3867 71.146C81.3867 70.6331 81.6355 70.1301 82.0952 69.8257C82.7148 69.415 83.5361 69.4915 84.0696 70.0088L85.0203 70.9297C86.1077 71.9846 86.9463 73.269 87.4731 74.6895L87.9888 76.0774L93.2976 72.5698C94.1455 72.0085 95.2927 72.2539 95.834 73.1223C96.3562 73.959 96.0881 75.0645 95.2654 75.6091C95.2554 75.6157 95.2549 75.6262 95.2581 75.6343C95.2627 75.6428 95.2727 75.6489 95.2839 75.6443C95.4937 75.5632 95.7131 75.5242 95.9309 75.5242C96.2783 75.5242 96.6228 75.6243 96.9175 75.8147C97.1204 75.946 97.3001 76.1206 97.4422 76.3347C97.7161 76.7488 97.7979 77.2344 97.7083 77.6856C97.5674 78.3967 97.0508 78.7629 96.9492 78.832C96.9319 78.844 96.9273 78.8677 96.9392 78.8857C96.9392 78.8865 96.94 78.887 96.9407 78.887C96.9519 78.9031 96.9751 78.9077 96.9917 78.897C97.1362 78.8618 97.2835 78.8452 97.4309 78.8452C97.7903 78.8452 98.148 78.9475 98.4519 79.1411C98.6575 79.2725 98.8394 79.4463 98.98 79.6592C99.532 80.4924 99.3037 81.6157 98.4697 82.1677C98.4492 82.1816 98.4287 82.1956 98.4082 82.2087C98.3963 82.2183 98.3928 82.2334 98.3989 82.2441C98.4002 82.2466 98.4028 82.2493 98.4055 82.2507C98.4148 82.2581 98.4295 82.2586 98.4414 82.2493C98.9595 82.0728 99.5235 82.1531 99.9773 82.447C100.186 82.5811 100.371 82.7615 100.518 82.9832C101.07 83.8174 100.842 84.9404 100.009 85.4924Z" fill="#FDD7BD"/>
<path d="M87.1697 93.9947L83.8027 96.2244L78.9417 99.4436C74.4414 97.5794 71.1267 93.4326 70.4414 88.4468L76.0828 84.711L79.5169 82.4368C79.9121 82.1746 80.4456 82.2835 80.7075 82.6795L87.4124 92.803C87.6746 93.1992 87.5657 93.732 87.1697 93.9947Z" fill="#87DBFF"/>
<path d="M87.169 93.9947L83.802 96.2244L76.082 84.711L79.5161 82.4368C79.9114 82.1746 80.4448 82.2835 80.7068 82.6795L87.4116 92.803C87.6738 93.1992 87.5649 93.732 87.169 93.9947Z" fill="#6FC7FF"/>
<path d="M96.9172 75.8147L94.2615 77.2358C93.8845 77.437 93.4175 77.332 93.1641 76.989L95.2578 75.6343C95.2625 75.6431 95.2725 75.6489 95.2837 75.6443C95.4934 75.5632 95.7129 75.5242 95.9307 75.5242C96.2783 75.5242 96.6226 75.6245 96.9172 75.8147Z" fill="#FAC5AA"/>
<path d="M98.4512 79.1414L95.8533 80.5305C95.4763 80.7322 95.0093 80.6274 94.7559 80.2844L96.8496 78.9297L96.9399 78.8872C96.9512 78.9033 96.9744 78.908 96.991 78.8972C97.1357 78.8621 97.283 78.8455 97.4302 78.8455C97.7898 78.8455 98.1475 78.9475 98.4512 79.1414Z" fill="#FAC5AA"/>
<path d="M99.9773 82.4473L97.689 83.6714C97.313 83.8723 96.8457 83.7676 96.5918 83.4246L98.4055 82.251C98.4148 82.2583 98.4294 82.2588 98.4414 82.2495C98.9595 82.073 99.5234 82.1533 99.9773 82.4473Z" fill="#FAC5AA"/>
<path d="M100.933 82.7087C100.601 82.2078 100.098 81.8626 99.5137 81.7317C99.8909 81.0103 99.8755 80.1101 99.395 79.3848C99.0532 78.8684 98.5376 78.5349 97.9763 78.4087C98.0764 78.2178 98.1504 78.0117 98.1946 77.7944C98.3172 77.1902 98.1975 76.5745 97.857 76.0605C97.5252 75.5593 97.0222 75.2141 96.4375 75.0835C96.8147 74.3621 96.7993 73.4619 96.3189 72.7363C95.6165 71.6755 94.1814 71.3838 93.1204 72.0864L90.823 73.6079C89.5984 72.9868 88.2959 72.5461 86.9441 72.2952C86.5169 71.6465 86.02 71.0435 85.4639 70.5044L84.5134 69.5832C83.8174 68.9084 82.7258 68.8071 81.9177 69.3425C80.9617 69.9756 80.699 71.2685 81.332 72.2246C81.3569 72.2624 81.3814 72.3005 81.4055 72.3386C78.29 72.969 75.4507 74.6223 73.3491 77.0449C71.0686 79.6741 69.8125 83.0413 69.8125 86.5261C69.8125 87.1941 69.8582 87.8633 69.9485 88.5147C70.6445 93.5784 74.0176 97.9422 78.751 99.9033C80.5064 100.631 82.3689 101 84.2861 101C87.3225 101 90.229 100.07 92.6917 98.311C95.1008 96.5899 96.9033 94.2146 97.9046 91.4421C97.9981 91.1838 97.864 90.8984 97.6057 90.8052C97.3472 90.7119 97.062 90.8457 96.9688 91.1043C96.0364 93.686 94.3574 95.898 92.1131 97.5012C89.8203 99.1392 87.1138 100.005 84.2861 100.005C82.8242 100.005 81.3967 99.7742 80.0305 99.3191L84.0789 96.6382C84.0791 96.638 84.0794 96.638 84.0796 96.6377C84.0798 96.6377 84.0798 96.6375 84.0801 96.6372L87.4446 94.4092H87.4448C87.7468 94.209 87.9531 93.9033 88.0254 93.5481C88.0977 93.1929 88.0274 92.8306 87.8272 92.5286L87.7827 92.4612L88.4363 92.0283C88.9026 91.7195 89.4634 91.5984 90.0156 91.687C90.8152 91.8154 91.6272 91.6397 92.302 91.1926L97.7229 87.6028C97.6858 88.073 97.6248 88.5405 97.5396 89.0003C97.4893 89.2705 97.6677 89.5303 97.938 89.5803C97.9685 89.5862 97.9993 89.5889 98.0293 89.5889C98.2644 89.5889 98.4734 89.4214 98.5178 89.1819C98.6558 88.4399 98.7351 87.6799 98.7556 86.919L100.283 85.9072C100.797 85.5669 101.148 85.0466 101.271 84.4426C101.393 83.8384 101.273 83.2227 100.933 82.7087ZM89.8569 74.2476L88.3367 75.2544L88.0374 74.448C87.9124 74.1116 87.7691 73.7817 87.6104 73.459C88.3816 73.6545 89.1326 73.9182 89.8569 74.2476ZM74.1008 77.697C76.1206 75.3686 78.8718 73.8035 81.8816 73.2607C82.3645 74.4307 82.4802 75.7378 82.1917 76.9836L80.9785 82.2246C80.7878 82.021 80.5403 81.8806 80.2615 81.824C79.906 81.7515 79.544 81.822 79.242 82.0222L75.8057 84.2976C75.8054 84.2976 75.8054 84.2976 75.8052 84.2979C75.8052 84.2979 75.8049 84.2979 75.8049 84.2981L70.8489 87.5801C70.8218 87.2305 70.8076 86.8782 70.8076 86.5261C70.8076 83.281 71.9773 80.1453 74.1008 77.697ZM87.0503 93.3496C87.031 93.4443 86.9758 93.5261 86.895 93.5796H86.8953L83.9402 95.5364L78.4556 87.3569C78.3025 87.1287 77.9934 87.0679 77.7651 87.221C77.5371 87.374 77.4761 87.6829 77.6292 87.9111L83.1104 96.0859L78.8919 98.8797C74.7 97.0462 71.7002 93.1741 70.979 88.6685L75.9409 85.3933L76.512 86.2454C76.6082 86.3884 76.7654 86.4658 76.9258 86.4658C77.021 86.4658 77.1174 86.4387 77.2024 86.3816C77.4307 86.2285 77.4917 85.9194 77.3386 85.6912L76.7715 84.8452L79.7915 82.8518C79.8718 82.7983 79.9683 82.7798 80.063 82.7991C80.1577 82.8184 80.2395 82.8735 80.293 82.9541L86.9976 93.0781C87.0508 93.1585 87.0696 93.2549 87.0503 93.3496ZM100.295 84.2444C100.226 84.5881 100.026 84.884 99.7337 85.0776L97.9873 86.2341C97.9868 86.2344 97.9863 86.2349 97.9856 86.2351L91.7525 90.363C91.2861 90.6719 90.7254 90.7932 90.1731 90.7044C89.3738 90.5762 88.5618 90.7517 87.8867 91.1987L87.2332 91.6316L81.742 83.3398L83.1614 77.2083C83.5269 75.6287 83.3342 73.9648 82.6379 72.5154C82.6316 72.5002 82.6248 72.4856 82.617 72.4712C82.4832 72.1973 82.3313 71.9314 82.1616 71.675C81.8316 71.1765 81.9685 70.5024 82.4673 70.1721C82.8887 69.8931 83.458 69.9458 83.8208 70.2976L84.7713 71.219C85.7993 72.2158 86.6062 73.4521 87.1043 74.7944L87.6218 76.1887C87.6228 76.1914 87.6238 76.1936 87.6248 76.196C87.626 76.1992 87.6275 76.2026 87.6287 76.2058C87.6323 76.2144 87.6358 76.2222 87.6394 76.2288C87.6494 76.2498 87.6604 76.2705 87.6736 76.2903C87.8255 76.5195 88.134 76.5823 88.3631 76.4304L93.6699 72.9163C94.2735 72.5166 95.0896 72.6824 95.4893 73.2859C95.8889 73.8894 95.7232 74.7056 95.1196 75.1052L94.659 75.4104C94.659 75.4104 94.6587 75.4104 94.6585 75.4106L93.6309 76.0913C93.6294 76.0923 93.6284 76.0933 93.627 76.094C93.6211 76.0981 93.6155 76.102 93.6109 76.106C93.3985 76.262 93.3435 76.5586 93.4907 76.7808C93.6424 77.01 93.9512 77.0728 94.1804 76.9209L95.2088 76.2397C95.501 76.0466 95.8508 75.9785 96.1944 76.0483C96.5379 76.1182 96.834 76.3176 97.0274 76.6101C97.221 76.9023 97.2893 77.2527 97.2195 77.5962C97.1497 77.9399 96.9502 78.2358 96.6577 78.4294L95.169 79.4155C94.9397 79.5671 94.877 79.8757 95.0288 80.105C95.1245 80.2495 95.2827 80.3279 95.4441 80.3279C95.5383 80.3279 95.6338 80.301 95.7183 80.2451L95.9487 80.0925L96.7461 79.5645C97.3499 79.1648 98.1658 79.3306 98.5655 79.9341C98.9651 80.5378 98.7993 81.3538 98.1958 81.7537L97.4522 82.2461C97.4483 82.2485 97.4444 82.2512 97.4404 82.2539L96.7071 82.7395C96.4778 82.8911 96.4151 83.2 96.5669 83.4292C96.6626 83.5737 96.8208 83.6521 96.9822 83.6521C97.0764 83.6521 97.1719 83.6252 97.2564 83.5693L97.4868 83.4168C97.4868 83.4168 97.4868 83.4165 97.4871 83.4165L98.2844 82.8887C98.5767 82.6951 98.9268 82.6267 99.2705 82.6968C99.6143 82.7664 99.9102 82.9661 100.104 83.2583C100.297 83.5505 100.365 83.9009 100.295 84.2444Z" fill="black"/>
</g>
<path d="M13.1583 30.8004C13.0454 32.5516 11.6343 34.6585 13.3276 36.1361C14.7952 37.3948 16.6297 36.4645 18.2949 36.5739C20.1294 36.7108 19.3392 38.3525 19.1134 39.5565C18.944 40.4595 18.8594 41.4445 19.2827 42.3202C19.9601 43.6883 21.7946 44.5639 23.1493 43.5788C23.996 42.9495 23.1493 41.5266 22.3026 42.156C20.9197 43.1684 20.6374 40.7331 20.7785 39.9943C20.9197 39.2008 21.2019 38.4073 21.2301 37.5864C21.2583 36.4371 20.6374 35.5342 19.5367 35.1511C18.182 34.6859 16.9684 35.2058 15.6137 35.1784C13.1583 35.1237 14.7952 32.2232 14.8799 30.8004C14.9364 29.7332 13.243 29.7332 13.1583 30.8004Z" fill="#FF9C07"/>
<path d="M23.3288 32.4192C22.6458 33.8921 21.9901 35.6377 23.0829 37.1105C23.4928 37.656 24.0392 37.9833 24.6949 38.0924C25.1321 38.147 25.7059 37.9561 26.0884 38.1197C26.7168 38.3652 27.072 39.1016 26.7714 39.7562C26.3069 40.7108 27.7277 41.5291 28.1922 40.5745C28.7659 39.3471 28.5474 37.9288 27.4545 37.0287C26.8534 36.5377 26.3069 36.5377 25.5693 36.4559C23.5747 36.265 24.1212 34.6012 24.7496 33.2647C25.1867 32.3101 23.766 31.4646 23.3288 32.4192Z" fill="#FF9C07"/>
<path d="M168.17 60.8508C168.001 58.8474 170.526 57.7187 171.592 59.6092C172.49 61.2458 170.722 62.6849 169.18 62.1488C168.17 61.782 167.721 63.4186 168.731 63.7854C171.844 64.9141 174.79 61.3587 172.91 58.537C170.891 55.5177 166.206 57.2954 166.515 60.8508C166.571 61.9231 168.254 61.9513 168.17 60.8508Z" fill="#4AD7B5"/>
<path fill-rule="evenodd" clip-rule="evenodd" d="M59.2302 141.39L55.9603 140.229L53.0714 142L53.2619 138.806L50.5 136.832L53.8968 136.019L55.1032 133L57.0079 135.729L60.5 135.845L58.2778 138.313L59.2302 141.39Z" stroke="#6FC7FF" stroke-width="1.2"/>
<defs>
<clipPath id="clip0_13051_31573">
<rect width="32" height="32" fill="white" transform="translate(69.5 69)"/>
</clipPath>
</defs>
</svg>
