<svg width="893" height="120" viewBox="0 0 893 120" fill="none" xmlns="http://www.w3.org/2000/svg">
<path d="M4.39326 117.884L4.22224 38.3495C4.25695 29.0009 9.03038 24.1088 18.5426 23.6733L29.9017 23.1532L56.1532 81.0874L74.4279 28.4719C76.1432 23.4885 81.2028 20.8044 89.6068 20.4197L102.213 19.8425L110.643 113.019L100.531 113.482C93.6968 113.795 89.7953 108.421 88.8261 97.3601L84.4777 47.8626L69.7318 89.6277C67.1903 96.7774 62.9181 100.49 56.9152 100.765C50.8201 101.044 46.2308 97.8296 43.1473 91.1224L24.6848 51.7108L24.8395 100.567C24.8766 111.486 21.4782 117.102 14.6442 117.415L4.39326 117.884ZM155.692 110.957C142.486 111.561 135.572 105.076 134.951 91.5002L132.42 36.2281C131.879 24.4071 137.38 18.2324 148.924 17.7038L191.729 15.744C192.249 27.1032 186.922 33.0386 175.747 33.5503L158.985 34.3177C155.199 34.491 153.392 36.4709 153.566 40.2573L154.244 55.0797L178.764 53.9571C184.305 53.7034 187.204 56.3933 187.462 62.0267C187.724 67.7524 185.085 70.7422 179.544 70.9959L155.025 72.1185L155.659 85.9712C155.9 91.2352 158.698 93.7446 164.055 93.4993L178.739 92.827C190.098 92.307 196.038 97.7265 196.558 109.086L155.692 110.957ZM243.081 108.899C231.906 109.411 221.862 108.344 212.949 105.698C212.438 94.5232 215.553 88.7816 222.294 88.473C223.495 88.418 225.972 88.9524 229.725 90.0762C233.474 91.1076 237.196 91.5388 240.89 91.3696C251.88 90.8665 257.203 86.8747 256.861 79.3942C256.561 72.8373 249.131 68.2263 234.572 65.5613C220.105 62.892 212.572 55.0005 211.971 41.8866C211.088 22.5852 222.374 12.3975 245.832 11.3235C255.067 10.9007 264.038 11.7856 272.745 13.9782C273.261 25.245 270.286 31.0264 263.822 31.3224C262.898 31.3647 260.566 30.9625 256.826 30.1158C253.173 29.1724 249.916 28.7663 247.053 28.8974C236.986 29.3583 232.112 33.0519 232.429 39.9782C232.683 45.5193 240.194 49.8952 254.963 53.1059C269.728 56.2242 277.417 64.4788 278.03 77.8697C278.926 97.4482 267.277 107.791 243.081 108.899ZM292.751 104.682L313.805 21.8155C315.758 13.9523 321.491 9.80292 331.003 9.36741L345.133 8.72048L377.529 100.8L366.724 101.295C359.428 101.629 354.755 98.6036 352.704 92.2194L349.635 82.7816L318.189 84.2213L315.995 93.9001C314.536 100.445 310.297 103.878 303.279 104.2L292.751 104.682ZM321.893 68.0877L344.611 67.0476L331.475 25.7262L321.893 68.0877Z" fill="#DE4D4D"/>
<path d="M443.727 100.333C429.419 99.5559 418.967 95.0997 412.373 86.9645C405.875 78.7419 402.92 69.2304 403.507 58.4299L404.387 42.2292C404.978 31.3364 409.1 21.9315 416.752 14.0145C424.5 6.01022 435.437 2.39164 449.56 3.15877C459.069 3.6752 466.906 5.11931 473.073 7.49112C472.466 18.6609 468.378 24.0401 460.809 23.629C459.885 23.5789 458.195 23.163 455.738 22.3815C453.286 21.5076 450.859 21.0055 448.459 20.8751C442.274 20.5392 437.198 22.8095 433.23 27.6861C429.354 32.5677 427.215 38.701 426.814 46.086L426.242 56.6095C425.846 63.9021 427.277 69.9515 430.534 74.7576C433.796 79.4715 438.658 82.0038 445.12 82.3548C448.074 82.5153 450.866 82.2503 453.496 81.5599C456.126 80.8694 457.948 80.5518 458.964 80.607C466.072 80.993 469.312 86.9555 468.686 98.4945C462.662 100.297 454.343 100.91 443.727 100.333ZM508.247 101.893C495.047 101.176 488.815 94.0328 489.552 80.463L492.553 25.2143C493.195 13.3984 499.285 7.80381 510.824 8.43054L553.611 10.7545C552.994 22.1088 547.101 27.4827 535.931 26.876L519.176 25.966C515.392 25.7604 513.396 27.55 513.191 31.3348L512.386 46.1508L536.895 47.482C542.434 47.7829 545.05 50.7488 544.744 56.3798C544.433 62.1031 541.509 64.8144 535.97 64.5136L511.461 63.1824L510.709 77.0292C510.423 82.2909 512.957 85.0672 518.311 85.358L532.989 86.1552C544.343 86.7719 549.712 92.7575 549.095 104.112L508.247 101.893ZM569.201 105.204L573.232 30.9851C573.924 18.2461 580.501 12.215 592.963 12.8919L608.61 13.7417C631.226 14.9701 641.993 25.554 640.91 45.4934C640.158 59.3402 634.012 67.663 622.472 70.4618L644.389 109.288L632.204 108.626C624.357 108.2 618.882 105.032 615.777 99.1233L601.529 72.5184L591.975 71.9995L590.862 92.4927C590.36 101.724 586.186 106.126 578.34 105.7L569.201 105.204ZM606.207 29.8597L600.114 29.5288C596.237 29.3182 594.193 31.1515 593.983 35.0286L592.825 56.3526L604.733 56.9994C614.149 57.5108 619.1 53.2894 619.586 44.3352C620.082 35.1963 615.623 30.3712 606.207 29.8597ZM674.741 110.936L678.795 36.3021L666.61 35.6403C658.486 35.199 654.608 31.609 654.974 24.8703L655.44 16.2853L713.596 19.444C721.72 19.8852 725.601 23.4291 725.24 30.0755L724.766 38.799L700.396 37.4753L697.094 98.2627C696.593 107.494 692.28 111.889 684.157 111.448L674.741 110.936ZM718.94 113.337L748.163 32.9871C750.892 25.3583 757.011 21.802 766.519 22.3185L780.642 23.0856L803.682 117.94L792.882 117.353C785.589 116.957 781.241 113.48 779.838 106.923L777.726 97.226L746.294 95.5188L743.144 104.93C741.04 111.297 736.479 114.289 729.464 113.908L718.94 113.337ZM751.59 79.8357L774.299 81.0691L765.354 38.6426L751.59 79.8357Z" fill="#DE4D4D"/>
<path fill-rule="evenodd" clip-rule="evenodd" d="M862.286 118.68C860.721 118.891 859.123 119 857.5 119C856.125 119 854.767 118.922 853.433 118.77L852.491 86.3895C856.067 85.562 857.746 82.128 857.614 78.0916L857.084 62.0492C857.053 61.107 856.288 60.3593 855.355 60.3593C855.153 60.3593 854.988 60.5253 854.988 60.7303L854.988 76.0033C854.988 76.4425 854.659 76.8259 854.226 76.8538C853.751 76.885 853.356 76.5049 853.356 76.0316L853.356 61.0586C853.356 60.6722 853.046 60.3593 852.664 60.3593H851.859C851.477 60.3593 851.166 60.6722 851.166 61.0586V76.0043C851.166 76.4434 850.839 76.8259 850.405 76.8538C849.93 76.8845 849.536 76.5049 849.536 76.0316L849.536 61.0586C849.536 60.6722 849.226 60.3593 848.844 60.3593H848.039C847.656 60.3593 847.347 60.6722 847.347 61.0586L847.347 76.0028C847.347 76.4415 847.02 76.8245 846.586 76.8538C846.111 76.8859 845.715 76.5058 845.715 76.0316V60.7303C845.715 60.5253 845.55 60.3593 845.347 60.3593C844.414 60.3593 843.649 61.107 843.618 62.0492L843.089 78.0916C842.956 82.127 844.636 85.562 848.212 86.3895L847.306 117.515C832.668 113.134 822 99.5628 822 83.5C822 63.8939 837.894 48 857.5 48C877.106 48 893 63.8939 893 83.5C893 99.3933 882.556 112.847 868.156 117.373C867.988 115.612 867.81 113.872 867.637 112.177C866.995 105.89 866.418 100.233 866.599 96.5411C866.594 92.9218 867.513 91.5245 868.394 90.1849C869.203 88.9548 869.98 87.7735 869.98 84.9652C869.98 74.5356 868.464 60.3571 865.164 60.3571C862.468 60.3571 862.595 73.6239 862.691 83.7328C862.708 85.4891 862.724 87.15 862.724 88.6296C862.724 90.7703 863.037 91.6757 863.349 92.5777C863.662 93.4847 863.975 94.3883 863.966 96.5411C864.148 100.234 863.57 105.892 862.928 112.179C862.713 114.292 862.49 116.476 862.286 118.68Z" fill="#DE4D4D"/>
</svg>