<svg width="71" height="71" viewBox="0 0 71 71" fill="none" xmlns="http://www.w3.org/2000/svg">
<path fill-rule="evenodd" clip-rule="evenodd" d="M40.2859 70.6802C38.7207 70.8911 37.1231 71 35.5 71C34.1246 71 32.7675 70.9218 31.4328 70.7696L30.4908 38.3895C34.0665 37.562 35.7463 34.128 35.6138 30.0916L35.0841 14.0492C35.0532 13.107 34.2884 12.3593 33.3554 12.3593C33.1525 12.3593 32.9882 12.5253 32.9882 12.7303L32.9882 28.0033C32.9882 28.4425 32.6594 28.8259 32.2257 28.8538C31.7507 28.885 31.3559 28.5049 31.3559 28.0316L31.3559 13.0586C31.3559 12.6722 31.0462 12.3593 30.6638 12.3593H29.8585C29.4766 12.3593 29.1664 12.6722 29.1664 13.0586V28.0043C29.1664 28.4434 28.8386 28.8259 28.4049 28.8538C27.9303 28.8845 27.536 28.5049 27.536 28.0316L27.536 13.0586C27.536 12.6722 27.2258 12.3593 26.8439 12.3593H26.0387C25.6563 12.3593 25.3465 12.6722 25.3465 13.0586L25.3465 28.0028C25.3465 28.4415 25.0197 28.8245 24.5864 28.8538C24.1114 28.8859 23.7147 28.5058 23.7147 28.0316V12.7303C23.7147 12.5253 23.5504 12.3593 23.347 12.3593C22.414 12.3593 21.6492 13.107 21.6183 14.0492L21.0891 30.0916C20.9561 34.127 22.6359 37.562 26.2116 38.3895L25.3058 69.5146C10.6682 65.1339 0 51.5628 0 35.5C0 15.8939 15.8939 0 35.5 0C55.1061 0 71 15.8939 71 35.5C71 51.3933 60.5558 64.8472 46.1564 69.3728C45.9876 67.6125 45.8099 65.8717 45.6369 64.1767C44.9951 57.8904 44.4176 52.2334 44.599 48.5411C44.5937 44.9218 45.5127 43.5245 46.3937 42.1849C47.2027 40.9548 47.9797 39.7735 47.9797 36.9652C47.9797 26.5356 46.4643 12.3571 43.1639 12.3571C40.4679 12.3571 40.5946 25.6239 40.6912 35.7328C40.708 37.4891 40.7239 39.15 40.7239 40.6296C40.7239 42.7703 41.0369 43.6757 41.3487 44.5777C41.6622 45.4847 41.9745 46.3883 41.9661 48.5411C42.1476 52.2338 41.5701 57.8916 40.9284 64.1788C40.7127 66.2917 40.4897 68.4757 40.2859 70.6802Z" fill="#DE4D4D"/>
</svg>
