<svg width="613" height="206" viewBox="0 0 613 206" fill="none" xmlns="http://www.w3.org/2000/svg">
<path d="M306.758 92.6406C285.977 92.6406 275.586 81.5078 275.586 59.2422V12.0156H283.672C290.547 12.0156 293.984 16.1562 293.984 24.4375V62.6406C293.984 72.6406 298.242 77.6406 306.758 77.6406C315.195 77.6406 319.414 72.6406 319.414 62.6406V24.4375C319.414 16.1562 322.891 12.0156 329.844 12.0156H337.812V59.2422C337.812 81.5078 327.461 92.6406 306.758 92.6406Z" fill="#4C70CD"/>
<path d="M230.352 91C219.18 91 213.594 85.2578 213.594 73.7734V27.0156C213.594 17.0156 218.477 12.0156 228.242 12.0156H264.453C264.453 21.625 259.727 26.4297 250.273 26.4297H236.094C232.891 26.4297 231.289 28.0312 231.289 31.2344V43.7734H252.031C256.719 43.7734 259.062 46.1562 259.062 50.9219C259.062 55.7656 256.719 58.1875 252.031 58.1875H231.289V69.9062C231.289 74.3594 233.555 76.5859 238.086 76.5859H250.508C260.117 76.5859 264.922 81.3906 264.922 91H230.352Z" fill="#4C70CD"/>
<path d="M144.922 88.7734C144.922 79.3203 147.773 74.5938 153.477 74.5938C154.492 74.5938 156.562 75.1406 159.688 76.2344C162.812 77.25 165.938 77.7578 169.062 77.7578C173.672 77.7578 177.148 76.9766 179.492 75.4141C181.836 73.7734 183.008 71.3906 183.008 68.2656C183.008 62.7188 176.914 58.5391 164.727 55.7266C152.617 52.9141 146.562 45.9609 146.562 34.8672C146.562 27.1328 149.023 21.1172 153.945 16.8203C158.945 12.5234 166.406 10.375 176.328 10.375C184.141 10.375 191.68 11.4688 198.945 13.6562C198.945 23.1875 196.211 27.9531 190.742 27.9531C189.961 27.9531 188.008 27.5234 184.883 26.6641C181.836 25.7266 179.102 25.2578 176.68 25.2578C168.164 25.2578 163.906 28.1875 163.906 34.0469C163.906 38.7344 170.078 42.7188 182.422 46C194.766 49.2031 200.938 56.4688 200.938 67.7969C200.938 84.3594 190.703 92.6406 170.234 92.6406C160.781 92.6406 152.344 91.3516 144.922 88.7734Z" fill="#4C70CD"/>
<path d="M571.342 205.941C557.844 205.941 547.629 202.382 540.695 195.264C533.854 188.145 530.434 177.19 530.434 162.398V151.998C530.434 137.669 533.854 126.852 540.695 119.549C547.629 112.245 557.844 108.594 571.342 108.594C584.839 108.594 595.008 112.245 601.85 119.549C608.691 126.852 612.111 137.669 612.111 151.998V162.398C612.111 177.19 608.691 188.145 601.85 195.264C595.008 202.382 584.839 205.941 571.342 205.941ZM571.342 188.33C577.351 188.33 581.881 186.204 584.932 181.951C588.075 177.699 589.646 171.32 589.646 162.814V151.721C589.646 143.308 588.075 136.975 584.932 132.723C581.881 128.378 577.351 126.205 571.342 126.205C565.24 126.205 560.618 128.378 557.475 132.723C554.424 136.975 552.898 143.308 552.898 151.721V162.814C552.898 171.32 554.424 177.699 557.475 181.951C560.618 186.204 565.24 188.33 571.342 188.33Z" fill="#395BB0"/>
<path d="M447.369 204V129.672C447.369 116.914 453.609 110.535 466.09 110.535H481.76C504.41 110.535 515.734 120.52 515.734 140.488C515.734 154.355 510.049 162.999 498.678 166.42L522.668 204H510.465C502.607 204 496.967 201.134 493.547 195.402L477.877 169.609H468.309V190.133C468.309 199.378 464.38 204 456.521 204H447.369ZM468.309 153.939H480.234C485.042 153.939 488.601 152.83 490.912 150.611C493.223 148.3 494.379 144.926 494.379 140.488C494.379 135.958 493.177 132.538 490.773 130.227C488.462 127.915 484.949 126.76 480.234 126.76H474.133C470.25 126.76 468.309 128.701 468.309 132.584V153.939Z" fill="#395BB0"/>
<path d="M404.381 204V124.68C404.381 115.25 408.449 110.535 416.584 110.535H426.014V190.133C426.014 199.378 421.946 204 413.811 204H404.381Z" fill="#395BB0"/>
<path d="M350.16 204C336.94 204 330.33 197.205 330.33 183.615V128.285C330.33 116.452 336.108 110.535 347.664 110.535H390.514C390.514 121.906 384.921 127.592 373.734 127.592H356.955C353.165 127.592 351.27 129.487 351.27 133.277V148.115H375.814C381.361 148.115 384.135 150.935 384.135 156.574C384.135 162.306 381.361 165.172 375.814 165.172H351.27V179.039C351.27 184.309 353.951 186.943 359.312 186.943H374.012C385.383 186.943 391.068 192.629 391.068 204H350.16Z" fill="#395BB0"/>
<path d="M278.744 204V129.256H266.541H254.338V120.52C254.338 113.863 258.406 110.535 266.541 110.535H312.58H324.783V119.133C324.783 125.882 320.715 129.256 312.58 129.256H300.377V190.133C300.377 199.378 296.309 204 288.174 204H278.744Z" fill="#395BB0"/>
<path d="M180.148 204V129.672C180.148 116.914 186.389 110.535 198.869 110.535H214.539C237.189 110.535 248.514 120.52 248.514 140.488C248.514 154.355 242.828 162.999 231.457 166.42L255.447 204H243.244C235.386 204 229.747 201.134 226.326 195.402L210.656 169.609H201.088V190.133C201.088 199.378 197.159 204 189.301 204H180.148ZM201.088 153.939H213.014C217.821 153.939 221.38 152.83 223.691 150.611C226.003 148.3 227.158 144.926 227.158 140.488C227.158 135.958 225.956 132.538 223.553 130.227C221.242 127.915 217.729 126.76 213.014 126.76H206.912C203.029 126.76 201.088 128.701 201.088 132.584V153.939Z" fill="#395BB0"/>
<path d="M121.629 205.941C108.132 205.941 97.916 202.382 90.9824 195.264C84.1413 188.145 80.7207 177.19 80.7207 162.398V151.998C80.7207 137.669 84.1413 126.852 90.9824 119.549C97.916 112.245 108.132 108.594 121.629 108.594C135.126 108.594 145.296 112.245 152.137 119.549C158.978 126.852 162.398 137.669 162.398 151.998V162.398C162.398 177.19 158.978 188.145 152.137 195.264C145.296 202.382 135.126 205.941 121.629 205.941ZM121.629 188.33C127.638 188.33 132.168 186.204 135.219 181.951C138.362 177.699 139.934 171.32 139.934 162.814V151.721C139.934 143.308 138.362 136.975 135.219 132.723C132.168 128.378 127.638 126.205 121.629 126.205C115.527 126.205 110.905 128.378 107.762 132.723C104.711 136.975 103.186 143.308 103.186 151.721V162.814C103.186 171.32 104.711 177.699 107.762 181.951C110.905 186.204 115.527 188.33 121.629 188.33Z" fill="#395BB0"/>
<path d="M0.429688 204V129.672C0.429688 116.914 6.71615 110.535 19.2891 110.535H35.2363C58.2559 110.535 69.7656 120.982 69.7656 141.875C69.7656 162.768 58.2559 173.215 35.2363 173.215H21.5078V190.133C21.5078 199.378 17.5326 204 9.58203 204H0.429688ZM21.5078 156.713H33.1562C38.2409 156.713 42.0312 155.465 44.5273 152.969C47.0234 150.473 48.2715 146.775 48.2715 141.875C48.2715 136.698 46.931 132.954 44.25 130.643C41.569 128.239 37.8711 127.037 33.1562 127.037H27.332C23.4492 127.037 21.5078 129.21 21.5078 133.555V156.713Z" fill="#395BB0"/>
<path d="M412.5 0C384.062 0 361 23.0619 361 51.5C361 79.9381 384.062 103 412.5 103C440.938 103 464 79.9381 464 51.5C464 23.0619 440.938 0 412.5 0Z" fill="#4C70CD"/>
<path d="M412.458 65.8018L404.238 66.9019L404.633 69.6212L412.438 75.4541L420.367 69.6212L420.761 66.9019L412.458 65.8018Z" fill="#C7C8C9"/>
<path d="M447.871 79.4611C446.107 73.7942 431.016 69.2275 412.417 69.2275C393.818 69.2275 378.893 73.7942 377.129 79.4611C376.589 81.2255 375.987 84.0693 375.406 87.2245C384.768 96.9599 397.928 103 412.5 103C427.072 103 440.232 96.9391 449.594 87.2245C449.034 84.0693 448.432 81.2048 447.871 79.4611Z" fill="#334D5C"/>
<path d="M412.417 69.2061C393.818 69.2061 412.5 103 412.5 103C412.5 103 431.016 69.2061 412.417 69.2061Z" fill="#35529C"/>
<path d="M412.5 74.832L409.22 76.4719L412.5 81.7859L415.759 76.4719L412.5 74.832Z" fill="#E57428"/>
<path d="M416.423 87.0787C416.008 82.3874 413.226 79.0869 413.226 79.0869H412.5H411.773C411.773 79.0869 408.992 82.3874 408.577 87.0787C408.514 87.6806 408.473 88.3864 408.411 89.1752L412.5 101.713L416.61 89.1544C416.548 88.3864 416.485 87.6806 416.423 87.0787Z" fill="#E57428"/>
<path d="M414.513 80.9971L409.49 83.1766C409.386 83.4257 409.303 83.6956 409.22 83.9654L414.804 81.5575C414.7 81.3707 414.596 81.1839 414.513 80.9971Z" fill="white"/>
<path d="M415.717 83.6953L408.618 86.7675C408.597 86.8712 408.597 86.975 408.577 87.0581C408.556 87.1826 408.556 87.3279 408.535 87.4732L415.883 84.2973C415.842 84.0897 415.78 83.9029 415.717 83.6953Z" fill="white"/>
<path d="M416.423 87.0785C416.402 86.9332 416.402 86.7879 416.382 86.6426L408.66 89.9846L408.846 90.5866L416.444 87.3068C416.444 87.203 416.444 87.1408 416.423 87.0785Z" fill="white"/>
<path d="M409.573 92.7874L409.781 93.3894L416.112 90.6286L416.382 89.8398L409.573 92.7874Z" fill="white"/>
<path d="M410.507 95.6102L410.694 96.1914L414.887 94.3855L415.157 93.5967L410.507 95.6102Z" fill="white"/>
<path d="M411.421 98.4341L411.628 99.0154L413.663 98.1228L413.933 97.334L411.421 98.4341Z" fill="white"/>
<path d="M409.615 77.0947L410.154 77.9873L413.912 79.4819L414.244 78.9422L409.615 77.0947Z" fill="white"/>
<path d="M411.483 75.3506L410.735 75.7242L415.157 77.4679L415.468 76.9282L411.483 75.3506Z" fill="white"/>
<path d="M420.575 58.5576H404.425C406.937 66.155 404.633 69.6215 404.633 69.6215L410.217 70.8877H414.783L420.367 69.6215C420.367 69.6215 418.063 66.155 420.575 58.5576Z" fill="#E2A379"/>
<path d="M412.458 65.8018L404.633 69.6212C404.633 69.6212 408.12 75.4541 412.438 75.4541C416.755 75.4541 420.367 69.6212 420.367 69.6212L412.458 65.8018Z" fill="#E2A379"/>
<path d="M430.808 37.0114C430.808 36.8038 430.808 36.5755 430.808 36.3679C430.808 17.1878 422.609 12.7871 412.479 12.7871C402.37 12.7871 394.15 17.1878 394.15 36.3679C394.15 36.5963 394.15 36.8038 394.15 37.0114C392.552 37.3643 391.452 38.3607 392.365 43.7784C393.361 49.5491 394.586 49.819 396.33 49.5283V49.5076C396.641 50.3379 396.973 51.1059 397.347 51.8532C401.581 60.4884 408.909 63.4983 412.458 63.4983C416.008 63.4983 423.335 60.4884 427.57 51.8532C427.944 51.0852 428.297 50.2756 428.629 49.4246L428.608 49.5283C430.352 49.819 431.576 49.5491 432.573 43.7784C433.548 38.3399 432.407 37.3643 430.808 37.0114Z" fill="#F4B382"/>
<path d="M415.074 51.8942C414.348 51.7904 412.5 52.4962 412.5 52.4962C412.5 52.4962 410.632 51.7904 409.905 51.8942C408.722 52.0603 406.979 52.9944 406.979 53.3265C406.979 53.8662 409.449 55.2985 412.521 55.2985C415.593 55.2985 418.063 53.8454 418.063 53.3265C418.042 53.3473 416.257 52.081 415.074 51.8942Z" fill="#E5A173"/>
<path d="M412.5 53.6175C409.22 53.6175 406.958 53.3477 406.958 53.3477C406.958 53.8874 409.428 55.9216 412.5 55.9216C415.572 55.9216 418.042 53.8666 418.042 53.3477C418.042 53.3477 415.78 53.6175 412.5 53.6175Z" fill="#D89364"/>
<path d="M412.5 12.2676C400.46 12.2676 394.171 17.1872 394.171 36.3673L402.225 22.169C402.225 22.169 407.933 23.0616 412.5 23.0616C417.067 23.0616 422.09 22.169 422.09 22.169L430.829 36.3673C430.829 17.1872 424.539 12.2676 412.5 12.2676Z" fill="#30302E"/>
<path d="M398.384 28.7695L395.354 29.2262C394.482 31.4888 394.191 34.2911 394.191 37.0104C394.191 37.0104 396.018 36.616 396.018 37.5501L396.599 43.2792L397.409 42.8848C397.326 38.1105 398.384 28.7695 398.384 28.7695Z" fill="#30302E"/>
<path d="M429.667 29.2266L426.636 29.1436C426.636 29.1436 427.695 38.1109 427.653 42.8852L428.463 43.2796L429.044 37.5504C429.044 36.6163 430.871 37.0107 430.871 37.0107C430.85 34.2707 430.559 31.4892 429.667 29.2266Z" fill="#30302E"/>
<path d="M412.458 11.375C399.838 11.375 393.901 16.4191 393.901 16.4191L394.69 24.0165L394.939 25.9054C394.939 25.9054 394.897 28.9153 397.824 28.9153C400.751 28.9153 404.384 26.7357 412.479 26.7357C420.575 26.7357 424.166 28.9153 427.134 28.9153C430.123 28.9153 430.082 25.8224 430.082 25.8224L430.268 24.0165L431.057 16.4191C431.099 16.4191 425.1 11.375 412.458 11.375Z" fill="#25383F"/>
<path d="M430.144 21.8584C426.989 20.5299 420.554 18.3711 412.5 18.3711C404.446 18.3711 398.011 20.5507 394.856 21.8584L394.524 22.2528L394.711 24.0172L394.898 25.3457C398.198 23.9964 404.591 21.9207 412.521 21.9207C420.492 21.9207 426.885 24.0172 430.186 25.3665L430.331 24.0172L430.518 22.2528L430.144 21.8584Z" fill="#3A5560"/>
<path d="M412.5 23.3936C404.529 23.3936 398.156 24.7843 394.959 26.1128C395.001 26.7771 395.354 29.6416 397.845 29.6416C400.772 29.6416 404.404 27.4621 412.5 27.4621C420.595 27.4621 424.186 29.6416 427.155 29.6416C429.563 29.6416 429.999 26.9016 430.082 26.1336C426.926 24.8051 420.512 23.3936 412.5 23.3936Z" fill="#0D1416"/>
<path d="M412.5 22.667C404.529 22.667 398.156 24.7843 394.959 26.1128C395.001 26.777 395.354 28.9151 397.845 28.9151C400.772 28.9151 404.404 26.7355 412.5 26.7355C420.595 26.7355 424.186 28.9151 427.155 28.9151C429.563 28.9151 429.999 26.9016 430.082 26.1335C426.926 24.805 420.512 22.667 412.5 22.667Z" fill="#25383F"/>
<path d="M412.5 21.9414C404.57 21.9414 398.177 24.0172 394.876 25.3664L394.959 25.9269C394.959 25.9269 394.959 25.9892 394.959 26.1137C398.156 24.7852 404.529 22.6679 412.5 22.6679C420.512 22.6679 426.926 24.806 430.102 26.1345C430.123 25.9477 430.123 25.8231 430.123 25.8231L430.165 25.3664C426.864 24.0172 420.471 21.9414 412.5 21.9414Z" fill="white"/>
<path d="M430.58 21.2564L430.497 21.2149C427.321 19.8864 420.741 17.6445 412.479 17.6445C404.218 17.6445 397.658 19.8864 394.461 21.2149L394.378 21.2564L394.482 22.2528L394.814 21.8584C397.97 20.5299 404.404 18.3711 412.458 18.3711C420.512 18.3711 426.947 20.5506 430.103 21.8584L430.435 22.2528L430.58 21.2564Z" fill="white"/>
<path d="M420.762 66.9023L412.5 75.5376L420.097 77.6549L424.477 70.1198L420.762 66.9023Z" fill="#D4D6D8"/>
<path d="M404.239 66.9023L400.523 70.1198L404.903 77.6549L412.5 75.5376L404.239 66.9023Z" fill="#D4D6D8"/>
<path d="M412.5 101.692L402.038 69.7048L401.81 68.999L399.215 70.0784L395.167 80.1459L408.39 102.834C409.739 102.938 411.109 103 412.5 103V101.692Z" fill="#2A3F49"/>
<path d="M425.785 70.0784L425.66 70.0369L423.19 68.999L422.962 69.7255L412.5 101.692V102.979C413.891 102.979 415.261 102.917 416.61 102.813L429.833 80.1459L425.785 70.0784Z" fill="#2A3F49"/>
<path d="M419.973 52.0816C419.973 50.9814 416.714 50.4002 413.102 50.2342C412.936 50.2342 412.521 50.6285 412.5 50.6285C412.458 50.6285 412.085 50.2134 411.919 50.2342C408.307 50.4002 405.027 50.9814 405.027 52.0816C405.027 52.4345 404.757 54.9254 406.023 54.1989C407.061 52.8496 409.386 51.8325 411.877 51.7287C412.085 51.7287 412.292 51.8948 412.5 51.8948C412.728 51.8948 412.936 51.7287 413.143 51.7287C415.634 51.8325 417.835 52.6836 418.976 54.1989C420.242 54.9462 419.973 52.4345 419.973 52.0816Z" fill="#30302E"/>
<path d="M428.712 94.8415C428.93 94.8415 429.106 94.665 429.106 94.4471C429.106 94.2293 428.93 94.0527 428.712 94.0527C428.494 94.0527 428.317 94.2293 428.317 94.4471C428.317 94.665 428.494 94.8415 428.712 94.8415Z" fill="#334D5C"/>
<path d="M431.286 94.8415C431.503 94.8415 431.68 94.665 431.68 94.4471C431.68 94.2293 431.503 94.0527 431.286 94.0527C431.068 94.0527 430.891 94.2293 430.891 94.4471C430.891 94.665 431.068 94.8415 431.286 94.8415Z" fill="#334D5C"/>
<path d="M431.452 91.666H428.546C428.255 91.666 428.006 91.9151 428.006 92.2057V92.87C428.006 93.1606 428.255 93.4097 428.546 93.4097H431.452C431.742 93.4097 431.991 93.1606 431.991 92.87V92.2057C431.991 91.9151 431.742 91.666 431.452 91.666Z" fill="#334D5C"/>
<path d="M430.705 90.7109H429.272C429.168 90.7109 429.085 90.794 429.085 90.8978V91.0015C429.085 91.1053 429.168 91.1884 429.272 91.1884H430.705C430.808 91.1884 430.891 91.1053 430.891 91.0015V90.8978C430.891 90.794 430.808 90.7109 430.705 90.7109Z" fill="#334D5C"/>
</svg>
